<?xml version="1.0" encoding="utf-8"?>
<!-- Generator: Adobe Illustrator 23.0.5, SVG Export Plug-In . SVG Version: 6.00 Build 0)  -->
<svg version="1.1" xmlns="http://www.w3.org/2000/svg" xmlns:xlink="http://www.w3.org/1999/xlink" x="0px" y="0px"
	 viewBox="0 0 145 145" style="enable-background:new 0 0 145 145;" xml:space="preserve">
<style type="text/css">
	.st0{fill:#2F3192;}
	.st1{fill:#F25A2A;}
	.st2{display:none;}
	.st3{display:inline;fill:#2F3192;}
	.st4{font-family:'Bremenoff-SemiBold';}
	.st5{font-size:21px;}
	.st6{display:inline;fill:#F25A2A;}
	.st7{font-family:'Sogeh-Regular';}
</style>
<g id="Vector_Logo">
	<g>
		<g>
			<path class="st0" d="M101.95,105.11H30.06c-1.85,0-3.35-1.5-3.35-3.35s1.5-3.35,3.35-3.35h70.27l7-8.87H29.11
				c-1.85,0-3.35-1.5-3.35-3.35v-67.2L4.25,7.94C2.6,7.1,1.95,5.08,2.8,3.43c0.85-1.65,2.87-2.29,4.51-1.45l23.33,11.98
				c1.12,0.57,1.82,1.72,1.82,2.98v65.9h81.78c1.28,0,2.46,0.73,3.02,1.89c0.56,1.16,0.41,2.53-0.39,3.54l-12.3,15.57
				C103.94,104.64,102.97,105.11,101.95,105.11z"/>
			<path class="st0" d="M91.03,108.46c2.13,0,3.86,1.73,3.86,3.86c0,2.13-1.73,3.86-3.86,3.86c-2.13,0-3.86-1.73-3.86-3.86
				C87.17,110.2,88.9,108.46,91.03,108.46 M91.03,101.76c-5.83,0-10.56,4.73-10.56,10.56c0,5.83,4.73,10.56,10.56,10.56
				c5.83,0,10.56-4.73,10.56-10.56C101.59,106.49,96.86,101.76,91.03,101.76L91.03,101.76z"/>
			<path class="st0" d="M41.72,108.46c2.13,0,3.86,1.73,3.86,3.86c0,2.13-1.73,3.86-3.86,3.86c-2.13,0-3.86-1.73-3.86-3.86
				C37.86,110.2,39.59,108.46,41.72,108.46 M41.72,101.76c-5.83,0-10.56,4.73-10.56,10.56c0,5.83,4.73,10.56,10.56,10.56
				s10.56-4.73,10.56-10.56C52.29,106.49,47.56,101.76,41.72,101.76L41.72,101.76z"/>
			<path class="st0" d="M112.45,77.48H25.76V27.31h106.18c3.62,0,6.95,1.81,8.92,4.85s2.25,6.82,0.77,10.12l-0.2,0.38l-17.28,28.26
				C121.68,74.97,117.2,77.48,112.45,77.48z M32.46,70.78h79.99c2.43,0,4.73-1.29,5.99-3.36l17.15-28.06
				c0.47-1.19,0.35-2.48-0.36-3.57c-0.74-1.14-1.94-1.79-3.29-1.79H32.46V70.78z"/>
		</g>
	</g>
</g>
<g id="Typography">
	<g>
		<g>
			<path class="st1" d="M69.4,67.66c-1.18,0-2.23-0.21-3.12-0.61c-0.94-0.43-1.67-1.04-2.18-1.81c-0.51-0.77-0.78-1.69-0.8-2.7
				c-0.02-0.98,0.22-2.02,0.71-3.08l7.29-15.62c1.02-2.18,2.72-3.98,5.05-5.34c1.07-0.65,2.19-1.15,3.32-1.5
				c1.04-0.32,2.05-0.48,3-0.48c0.11,0,0.23,0,0.34,0.01l9.38,0c0.07,0,0.19-0.01,0.3-0.01c1.04,0,1.97,0.19,2.76,0.57
				c0.91,0.43,1.61,1.06,2.09,1.87c0.47,0.79,0.72,1.72,0.74,2.75c0.02,1-0.21,2.09-0.69,3.22l-3.71,7.96l-0.53,1.02
				c-0.34,0.73-0.86,1.42-1.51,2c-0.74,0.65-1.62,0.98-2.6,0.98H71.72l-1.62,3.48c-0.2,0.43-0.08,0.58,0.02,0.7
				c0.22,0.26,0.63,0.4,1.22,0.4h12.98c1.3,0,1.87,0.72,2.11,1.16c0.26,0.48,0.46,1.29-0.05,2.4c-0.35,0.75-0.9,1.38-1.65,1.89
				c-0.76,0.52-1.55,0.78-2.33,0.78H69.4z M88.45,50.64l2.99-6.51c0.18-0.48,0.19-0.88,0.02-1.14c-0.06-0.08-0.18-0.27-0.7-0.27
				c-0.07,0-0.14,0-0.22,0.01l-9.51,0c-0.81,0-1.59,0.23-2.39,0.71c-0.35,0.18-0.58,0.35-0.78,0.57c-0.24,0.28-0.44,0.54-0.59,0.79
				l-2.72,5.83H88.45z"/>
		</g>
	</g>
	<g>
		<g>
			<path class="st1" d="M16.86,140.43c-0.55,0-1.04-0.1-1.46-0.29c-0.44-0.2-0.78-0.48-1.02-0.85c-0.24-0.36-0.37-0.79-0.38-1.26
				c-0.01-0.46,0.1-0.94,0.33-1.44l3.4-7.3c0.47-1.02,1.27-1.86,2.36-2.5c0.5-0.3,1.02-0.54,1.55-0.7c0.48-0.15,0.96-0.23,1.4-0.23
				c0.05,0,0.11,0,0.16,0l4.38,0c0.03,0,0.09,0,0.14,0c0.49,0,0.92,0.09,1.29,0.26c0.42,0.2,0.75,0.5,0.98,0.87
				c0.22,0.37,0.33,0.8,0.34,1.29c0.01,0.47-0.1,0.97-0.32,1.5l-1.73,3.72L28.04,134c-0.16,0.34-0.4,0.66-0.71,0.93
				c-0.35,0.3-0.76,0.46-1.22,0.46h-8.17l-0.76,1.62c-0.09,0.2-0.04,0.27,0.01,0.33c0.1,0.12,0.29,0.19,0.57,0.19h6.06
				c0.61,0,0.88,0.34,0.98,0.54c0.12,0.23,0.22,0.6-0.03,1.12c-0.16,0.35-0.42,0.65-0.77,0.88c-0.36,0.24-0.72,0.37-1.09,0.37H16.86
				z M25.76,132.48l1.39-3.04c0.08-0.22,0.09-0.41,0.01-0.53c-0.03-0.04-0.08-0.13-0.33-0.13c-0.03,0-0.07,0-0.1,0l-4.44,0
				c-0.38,0-0.74,0.11-1.12,0.33c-0.16,0.08-0.27,0.16-0.36,0.27c-0.11,0.13-0.2,0.25-0.27,0.37l-1.27,2.73H25.76z"/>
		</g>
	</g>
	<g>
		<path class="st0" d="M35.92,133.74l-0.39,1.46h-5.48l0.39-1.46H35.92z"/>
		<path class="st0" d="M38.65,139.16c-0.55-0.38-0.92-0.92-1.09-1.62s-0.14-1.5,0.1-2.41c0.27-0.92,0.69-1.73,1.24-2.45
			c0.58-0.75,1.25-1.33,2.03-1.74c0.78-0.41,1.59-0.62,2.44-0.62c0.75,0,1.39,0.16,1.92,0.47c0.52,0.31,0.9,0.75,1.12,1.3
			c0.22,0.56,0.27,1.2,0.14,1.92h-1.47c0.09-0.44,0.06-0.82-0.08-1.16c-0.15-0.33-0.39-0.59-0.74-0.78
			c-0.35-0.18-0.77-0.28-1.28-0.28c-0.58,0-1.12,0.14-1.63,0.41c-0.53,0.28-0.98,0.67-1.36,1.17c-0.38,0.5-0.66,1.09-0.86,1.77
			c-0.17,0.63-0.2,1.18-0.09,1.65c0.11,0.47,0.35,0.83,0.71,1.08c0.37,0.25,0.84,0.38,1.42,0.38c0.52,0,1.01-0.09,1.47-0.28
			c0.46-0.19,0.85-0.45,1.18-0.79c0.33-0.33,0.57-0.72,0.7-1.15H46c-0.25,0.71-0.63,1.35-1.16,1.91c-0.53,0.56-1.15,1-1.85,1.31
			c-0.71,0.31-1.44,0.47-2.2,0.47C39.92,139.73,39.2,139.54,38.65,139.16z"/>
		<path class="st0" d="M48.46,139.16c-0.53-0.38-0.88-0.92-1.03-1.63s-0.1-1.54,0.16-2.49c0.26-0.96,0.65-1.8,1.19-2.51
			s1.17-1.26,1.91-1.64c0.74-0.38,1.54-0.57,2.4-0.57s1.56,0.19,2.09,0.57c0.53,0.38,0.87,0.93,1.02,1.63
			c0.15,0.71,0.09,1.55-0.17,2.52c-0.23,0.85-0.58,1.63-1.06,2.34c-0.52,0.76-1.17,1.34-1.92,1.74s-1.59,0.6-2.49,0.6
			C49.7,139.73,49,139.54,48.46,139.16z M52.69,137.84c0.43-0.29,0.81-0.68,1.13-1.16c0.32-0.48,0.56-1.02,0.72-1.63
			c0.15-0.55,0.2-1.09,0.16-1.6c-0.03-0.56-0.21-0.98-0.54-1.26c-0.33-0.28-0.82-0.42-1.47-0.42c-0.7,0-1.28,0.15-1.76,0.44
			c-0.43,0.29-0.81,0.68-1.13,1.17c-0.32,0.49-0.56,1.04-0.73,1.66c-0.15,0.55-0.2,1.07-0.15,1.57c0.03,0.55,0.22,0.96,0.56,1.24
			c0.34,0.28,0.83,0.42,1.47,0.42C51.66,138.28,52.24,138.13,52.69,137.84z"/>
		<path class="st0" d="M67.91,130.32c1.17,0.02,1.94,0.41,2.32,1.17c0.37,0.76,0.35,1.9-0.06,3.44l-1.23,4.6h-1.44l1.23-4.6
			c0.3-1.11,0.35-1.91,0.15-2.4c-0.2-0.5-0.66-0.74-1.39-0.74c-0.74,0-1.34,0.25-1.8,0.74c-0.46,0.5-0.85,1.3-1.14,2.4l-1.23,4.6
			h-1.44l1.23-4.6c0.3-1.11,0.35-1.91,0.15-2.4c-0.2-0.5-0.67-0.74-1.41-0.74c-0.75,0-1.35,0.25-1.82,0.74
			c-0.47,0.5-0.85,1.3-1.15,2.4l-1.23,4.6h-1.44l2.47-9.21h1.44l-0.17,0.63c0.67-0.41,1.43-0.62,2.27-0.63
			c1.29,0.02,2.12,0.47,2.49,1.36c0.4-0.44,0.86-0.77,1.39-1c0.53-0.23,1.11-0.35,1.75-0.36H67.91z"/>
		<path class="st0" d="M82.54,130.32c1.17,0.02,1.94,0.41,2.32,1.17c0.37,0.76,0.36,1.9-0.05,3.44l-1.23,4.6h-1.44l1.23-4.6
			c0.3-1.11,0.35-1.91,0.15-2.4c-0.2-0.5-0.66-0.74-1.39-0.74c-0.74,0-1.34,0.25-1.8,0.74c-0.46,0.5-0.85,1.3-1.14,2.4l-1.23,4.6
			h-1.44l1.23-4.6c0.3-1.11,0.35-1.91,0.15-2.4c-0.2-0.5-0.67-0.74-1.41-0.74c-0.75,0-1.35,0.25-1.82,0.74
			c-0.47,0.5-0.85,1.3-1.15,2.4l-1.23,4.6h-1.44l2.47-9.21h1.44l-0.17,0.63c0.67-0.41,1.43-0.62,2.27-0.63
			c1.29,0.02,2.12,0.47,2.49,1.36c0.4-0.44,0.86-0.77,1.39-1c0.53-0.23,1.11-0.35,1.75-0.36H82.54z"/>
		<path class="st0" d="M86.97,139c-0.47-0.43-0.77-1-0.91-1.7c-0.14-0.7-0.11-1.46,0.11-2.28c0.21-0.8,0.58-1.56,1.09-2.29
			c0.56-0.77,1.23-1.37,2-1.79c0.77-0.42,1.59-0.63,2.46-0.63c0.73,0,1.35,0.17,1.85,0.51c0.5,0.34,0.85,0.82,1.05,1.43
			c0.2,0.62,0.23,1.32,0.08,2.12c-0.01,0.03-0.01,0.06-0.01,0.08c-0.01,0.05-0.02,0.1-0.02,0.12l-0.22,0.82h-6.9
			c-0.17,0.92-0.08,1.63,0.28,2.14c0.36,0.5,0.94,0.75,1.76,0.75c0.46,0,0.91-0.09,1.35-0.29c0.43-0.19,0.81-0.46,1.13-0.8
			c0.32-0.34,0.55-0.73,0.68-1.16h1.49c-0.24,0.71-0.62,1.34-1.14,1.9s-1.12,1-1.8,1.32c-0.68,0.32-1.38,0.48-2.08,0.48
			C88.23,139.73,87.49,139.49,86.97,139z M93.28,133.97c0.01-0.23-0.01-0.46-0.06-0.72c-0.09-0.48-0.29-0.86-0.61-1.11
			c-0.32-0.26-0.74-0.38-1.27-0.38c-0.68,0-1.3,0.19-1.88,0.58c-0.58,0.39-1.03,0.93-1.37,1.63H93.28z"/>
		<path class="st0" d="M102.2,130.53l-0.38,1.42l-0.25,0.11c-0.09-0.09-0.22-0.16-0.41-0.21c-0.19-0.05-0.41-0.08-0.65-0.08
			c-0.53,0-0.98,0.11-1.36,0.32c-0.38,0.22-0.71,0.55-0.99,1.01c-0.28,0.46-0.52,1.06-0.72,1.81l-1.23,4.6h-1.46l2.47-9.21h1.46
			l-0.18,0.66c0.7-0.43,1.49-0.65,2.38-0.66C101.32,130.32,101.77,130.39,102.2,130.53z"/>
		<path class="st0" d="M102.64,139.16c-0.55-0.38-0.92-0.92-1.09-1.62c-0.18-0.7-0.14-1.5,0.1-2.41c0.27-0.92,0.69-1.73,1.24-2.45
			c0.58-0.75,1.25-1.33,2.03-1.74c0.78-0.41,1.59-0.62,2.44-0.62c0.75,0,1.39,0.16,1.92,0.47c0.52,0.31,0.9,0.75,1.12,1.3
			c0.22,0.56,0.27,1.2,0.14,1.92h-1.47c0.09-0.44,0.06-0.82-0.08-1.16c-0.15-0.33-0.39-0.59-0.74-0.78
			c-0.35-0.18-0.77-0.28-1.28-0.28c-0.58,0-1.12,0.14-1.63,0.41c-0.53,0.28-0.98,0.67-1.36,1.17c-0.38,0.5-0.66,1.09-0.86,1.77
			c-0.17,0.63-0.2,1.18-0.09,1.65c0.11,0.47,0.35,0.83,0.71,1.08c0.37,0.25,0.84,0.38,1.42,0.38c0.52,0,1.01-0.09,1.47-0.28
			c0.46-0.19,0.85-0.45,1.18-0.79c0.33-0.33,0.57-0.72,0.7-1.15h1.47c-0.25,0.71-0.63,1.35-1.16,1.91c-0.53,0.56-1.15,1-1.85,1.31
			c-0.71,0.31-1.44,0.47-2.2,0.47C103.9,139.73,103.19,139.54,102.64,139.16z"/>
		<path class="st0" d="M112.38,139c-0.47-0.43-0.77-1-0.91-1.7c-0.14-0.7-0.11-1.46,0.11-2.28c0.21-0.8,0.58-1.56,1.09-2.29
			c0.56-0.77,1.23-1.37,2-1.79c0.77-0.42,1.59-0.63,2.46-0.63c0.73,0,1.35,0.17,1.85,0.51c0.5,0.34,0.85,0.82,1.05,1.43
			c0.2,0.62,0.23,1.32,0.08,2.12c-0.01,0.03-0.01,0.06-0.01,0.08c-0.01,0.05-0.02,0.1-0.02,0.12l-0.22,0.82h-6.9
			c-0.17,0.92-0.08,1.63,0.28,2.14c0.36,0.5,0.94,0.75,1.76,0.75c0.46,0,0.91-0.09,1.35-0.29c0.43-0.19,0.81-0.46,1.13-0.8
			c0.32-0.34,0.55-0.73,0.68-1.16h1.49c-0.24,0.71-0.62,1.34-1.14,1.9s-1.12,1-1.8,1.32c-0.68,0.32-1.38,0.48-2.08,0.48
			C113.64,139.73,112.89,139.49,112.38,139z M118.69,133.97c0.01-0.23-0.01-0.46-0.06-0.72c-0.09-0.48-0.29-0.86-0.61-1.11
			c-0.32-0.26-0.74-0.38-1.27-0.38c-0.68,0-1.3,0.19-1.88,0.58c-0.58,0.39-1.03,0.93-1.37,1.63H118.69z"/>
	</g>
</g>
<g id="Typography_Backup" class="st2">
	<text transform="matrix(1 0 0 1 29.2478 139.0664)" class="st3 st4 st5">-commerce</text>
	<text transform="matrix(1 0 0 1 17.6431 139.3601)" class="st6 st7 st5">e</text>
</g>
<g id="Pallete_Colors" class="st2">
	<rect x="53.96" y="8.8" class="st6" width="9.33" height="9.33"/>
	<rect x="71.45" y="8.8" class="st3" width="9.33" height="9.33"/>
</g>
</svg>
